<svg width="76" height="78" viewBox="0 0 76 78" fill="none" xmlns="http://www.w3.org/2000/svg">
<g filter="url(#filter0_d_14_208)">
<path fill-rule="evenodd" clip-rule="evenodd" d="M35.6357 4.60393C35.6161 4.61574 35.5962 4.62725 35.576 4.63845L9.271 19.2469C9.27067 19.2471 9.27034 19.2473 9.27001 19.2475C9.03675 19.3774 8.84239 19.5673 8.70702 19.7974C8.57146 20.0279 8.49999 20.2905 8.5 20.5579V49.3833C8.50079 50.2742 8.73962 51.1487 9.19179 51.9164C9.64408 52.6843 10.2934 53.3173 11.0725 53.75L35.5725 67.365C36.3151 67.7774 37.1506 67.9938 38 67.9938C38.8494 67.9938 39.6849 67.7774 40.4275 67.365L64.927 53.7503C65.7065 53.3174 66.3565 52.6837 66.8088 51.9153C67.2611 51.1471 67.4997 50.2719 67.5 49.3805C67.5 49.3803 67.5 49.3806 67.5 49.3805V20.5579C67.5 20.2905 67.4285 20.028 67.293 19.7974C67.1574 19.567 66.9628 19.3769 66.7292 19.247C66.7291 19.247 66.7292 19.247 66.7292 19.247L40.4275 4.63846C40.4275 4.63844 40.4275 4.63848 40.4275 4.63846C39.6849 4.22609 38.8494 4.00964 38 4.00964C37.1746 4.00964 36.3624 4.21398 35.6357 4.60393ZM33.5589 1.18319C33.5824 1.16886 33.6063 1.15497 33.6305 1.14151C34.9672 0.399184 36.471 0.00964355 38 0.00964355C39.529 0.00964355 41.0328 0.399184 42.3695 1.14151L68.673 15.7511C69.5299 16.2276 70.2439 16.9245 70.7409 17.7697C71.238 18.6149 71.5 19.5776 71.5 20.5581V49.3805C71.4996 50.9854 71.0701 52.5615 70.2559 53.9445C69.4418 55.3276 68.2726 56.4678 66.8695 57.247L42.37 70.8617C41.0333 71.604 39.529 71.9938 38 71.9938C36.471 71.9938 34.9672 71.6043 33.6305 70.862L9.1305 57.247C7.7281 56.4682 6.55935 55.3287 5.74522 53.9465C4.93109 52.5643 4.50118 50.9896 4.5 49.3855L4.5 20.5581C4.5 20.558 4.5 20.5581 4.5 20.5581C4.49997 19.5776 4.76205 18.6149 5.25908 17.7697C5.75613 16.9245 6.47008 16.2276 7.327 15.7511L33.5589 1.18319Z" fill="url(#paint0_linear_14_208)"/>
<path fill-rule="evenodd" clip-rule="evenodd" d="M20.5017 8.77871C21.0381 7.81314 22.2557 7.46526 23.2213 8.00168L54.7213 25.5017C55.3562 25.8544 55.75 26.5237 55.75 27.25V39.5C55.75 40.6046 54.8546 41.5 53.75 41.5C52.6454 41.5 51.75 40.6046 51.75 39.5V28.4268L21.2787 11.4983C20.3131 10.9619 19.9653 9.74428 20.5017 8.77871ZM15.253 36.1743C15.7907 35.2095 17.0088 34.8633 17.9737 35.401L28.4737 41.253C29.4385 41.7907 29.7847 43.0088 29.247 43.9737C28.7093 44.9385 27.4912 45.2847 26.5263 44.747L16.0263 38.895C15.0615 38.3573 14.7153 37.1392 15.253 36.1743Z" fill="url(#paint1_linear_14_208)"/>
<path fill-rule="evenodd" clip-rule="evenodd" d="M36 37.1768L5.52869 20.2483L7.47126 16.7517L38 33.7121L68.5287 16.7517L70.4713 20.2483L40 37.1768V71H36V37.1768Z" fill="url(#paint2_linear_14_208)"/>
</g>
<defs>
<filter id="filter0_d_14_208" x="0.5" y="0.00964355" width="75" height="79.9841" filterUnits="userSpaceOnUse" color-interpolation-filters="sRGB">
<feFlood flood-opacity="0" result="BackgroundImageFix"/>
<feColorMatrix in="SourceAlpha" type="matrix" values="0 0 0 0 0 0 0 0 0 0 0 0 0 0 0 0 0 0 127 0" result="hardAlpha"/>
<feOffset dy="4"/>
<feGaussianBlur stdDeviation="2"/>
<feComposite in2="hardAlpha" operator="out"/>
<feColorMatrix type="matrix" values="0 0 0 0 0 0 0 0 0 0 0 0 0 0 0 0 0 0 0.25 0"/>
<feBlend mode="normal" in2="BackgroundImageFix" result="effect1_dropShadow_14_208"/>
<feBlend mode="normal" in="SourceGraphic" in2="effect1_dropShadow_14_208" result="shape"/>
</filter>
<linearGradient id="paint0_linear_14_208" x1="4.5" y1="36.0017" x2="71.5" y2="36.0017" gradientUnits="userSpaceOnUse">
<stop stop-color="#2AF598"/>
<stop offset="1" stop-color="#009EFD"/>
</linearGradient>
<linearGradient id="paint1_linear_14_208" x1="14.9996" y1="26.375" x2="55.75" y2="26.375" gradientUnits="userSpaceOnUse">
<stop stop-color="#2AF598"/>
<stop offset="1" stop-color="#009EFD"/>
</linearGradient>
<linearGradient id="paint2_linear_14_208" x1="5.52869" y1="43.8759" x2="70.4713" y2="43.8759" gradientUnits="userSpaceOnUse">
<stop stop-color="#2AF598"/>
<stop offset="1" stop-color="#009EFD"/>
</linearGradient>
</defs>
</svg>
