<svg width="128" height="33" viewBox="0 0 128 33" fill="none" xmlns="http://www.w3.org/2000/svg">
<g filter="url(#filter0_d_11_68)">
<path d="M25.2836 8.55056L19.3328 7.68571L16.6727 2.29275C16.6 2.14509 16.4805 2.02556 16.3328 1.9529C15.9625 1.77009 15.5125 1.92243 15.3273 2.29275L12.6672 7.68571L6.7164 8.55056C6.55234 8.574 6.40234 8.65134 6.2875 8.76853C6.14866 8.91123 6.07215 9.10322 6.07479 9.3023C6.07743 9.50138 6.15899 9.69127 6.30156 9.83025L10.607 14.0279L9.58984 19.9552C9.56599 20.0931 9.58125 20.2349 9.63389 20.3646C9.68652 20.4942 9.77444 20.6066 9.88766 20.6888C10.0009 20.771 10.1349 20.8199 10.2745 20.8298C10.414 20.8398 10.5536 20.8104 10.6773 20.7451L16 17.9467L21.3227 20.7451C21.468 20.8224 21.6367 20.8482 21.7984 20.8201C22.2062 20.7498 22.4805 20.3631 22.4102 19.9552L21.393 14.0279L25.6984 9.83025C25.8156 9.7154 25.893 9.5654 25.9164 9.40134C25.9797 8.99118 25.6937 8.6115 25.2836 8.55056Z" fill="#F2C94C"/>
<path d="M49.2836 8.55056L43.3328 7.68571L40.6727 2.29275C40.6 2.14509 40.4805 2.02556 40.3328 1.9529C39.9625 1.77009 39.5125 1.92243 39.3273 2.29275L36.6672 7.68571L30.7164 8.55056C30.5523 8.574 30.4023 8.65134 30.2875 8.76853C30.1487 8.91123 30.0722 9.10322 30.0748 9.3023C30.0774 9.50138 30.159 9.69127 30.3016 9.83025L34.607 14.0279L33.5898 19.9552C33.566 20.0931 33.5812 20.2349 33.6339 20.3646C33.6865 20.4942 33.7744 20.6066 33.8877 20.6888C34.0009 20.771 34.1349 20.8199 34.2745 20.8298C34.414 20.8398 34.5536 20.8104 34.6773 20.7451L40 17.9467L45.3227 20.7451C45.468 20.8224 45.6367 20.8482 45.7984 20.8201C46.2062 20.7498 46.4805 20.3631 46.4102 19.9552L45.393 14.0279L49.6984 9.83025C49.8156 9.7154 49.893 9.5654 49.9164 9.40134C49.9797 8.99118 49.6937 8.6115 49.2836 8.55056Z" fill="#F2C94C"/>
<path d="M73.2836 8.55056L67.3328 7.68571L64.6727 2.29275C64.6 2.14509 64.4805 2.02556 64.3328 1.9529C63.9625 1.77009 63.5125 1.92243 63.3273 2.29275L60.6672 7.68571L54.7164 8.55056C54.5523 8.574 54.4023 8.65134 54.2875 8.76853C54.1487 8.91123 54.0722 9.10322 54.0748 9.3023C54.0774 9.50138 54.159 9.69127 54.3016 9.83025L58.607 14.0279L57.5898 19.9552C57.566 20.0931 57.5812 20.2349 57.6339 20.3646C57.6865 20.4942 57.7744 20.6066 57.8877 20.6888C58.0009 20.771 58.1349 20.8199 58.2745 20.8298C58.414 20.8398 58.5536 20.8104 58.6773 20.7451L64 17.9467L69.3227 20.7451C69.468 20.8224 69.6367 20.8482 69.7984 20.8201C70.2062 20.7498 70.4805 20.3631 70.4102 19.9552L69.393 14.0279L73.6984 9.83025C73.8156 9.7154 73.893 9.5654 73.9164 9.40134C73.9797 8.99118 73.6937 8.6115 73.2836 8.55056Z" fill="#F2C94C"/>
<path d="M97.2836 8.55056L91.3328 7.68571L88.6727 2.29275C88.6 2.14509 88.4805 2.02556 88.3328 1.9529C87.9625 1.77009 87.5125 1.92243 87.3273 2.29275L84.6672 7.68571L78.7164 8.55056C78.5523 8.574 78.4023 8.65134 78.2875 8.76853C78.1487 8.91123 78.0722 9.10322 78.0748 9.3023C78.0774 9.50138 78.159 9.69127 78.3016 9.83025L82.607 14.0279L81.5898 19.9552C81.566 20.0931 81.5812 20.2349 81.6339 20.3646C81.6865 20.4942 81.7744 20.6066 81.8877 20.6888C82.0009 20.771 82.1349 20.8199 82.2745 20.8298C82.414 20.8398 82.5536 20.8104 82.6773 20.7451L88 17.9467L93.3227 20.7451C93.468 20.8224 93.6367 20.8482 93.7984 20.8201C94.2062 20.7498 94.4805 20.3631 94.4102 19.9552L93.393 14.0279L97.6984 9.83025C97.8156 9.7154 97.893 9.5654 97.9164 9.40134C97.9797 8.99118 97.6937 8.6115 97.2836 8.55056Z" fill="#F2C94C"/>
<path d="M121.284 8.55056L115.333 7.68571L112.673 2.29275C112.6 2.14509 112.48 2.02556 112.333 1.9529C111.962 1.77009 111.512 1.92243 111.327 2.29275L108.667 7.68571L102.716 8.55056C102.552 8.574 102.402 8.65134 102.287 8.76853C102.149 8.91123 102.072 9.10322 102.075 9.3023C102.077 9.50138 102.159 9.69127 102.302 9.83025L106.607 14.0279L105.59 19.9552C105.566 20.0931 105.581 20.2349 105.634 20.3646C105.687 20.4942 105.774 20.6066 105.888 20.6888C106.001 20.771 106.135 20.8199 106.274 20.8298C106.414 20.8398 106.554 20.8104 106.677 20.7451L112 17.9467L117.323 20.7451C117.468 20.8224 117.637 20.8482 117.798 20.8201C118.206 20.7498 118.48 20.3631 118.41 19.9552L117.393 14.0279L121.698 9.83025C121.816 9.7154 121.893 9.5654 121.916 9.40134C121.98 8.99118 121.694 8.6115 121.284 8.55056Z" fill="#F2C94C"/>
</g>
<defs>
<filter id="filter0_d_11_68" x="0" y="0.27478" width="128" height="32" filterUnits="userSpaceOnUse" color-interpolation-filters="sRGB">
<feFlood flood-opacity="0" result="BackgroundImageFix"/>
<feColorMatrix in="SourceAlpha" type="matrix" values="0 0 0 0 0 0 0 0 0 0 0 0 0 0 0 0 0 0 127 0" result="hardAlpha"/>
<feOffset dy="4"/>
<feGaussianBlur stdDeviation="2"/>
<feComposite in2="hardAlpha" operator="out"/>
<feColorMatrix type="matrix" values="0 0 0 0 0 0 0 0 0 0 0 0 0 0 0 0 0 0 0.25 0"/>
<feBlend mode="normal" in2="BackgroundImageFix" result="effect1_dropShadow_11_68"/>
<feBlend mode="normal" in="SourceGraphic" in2="effect1_dropShadow_11_68" result="shape"/>
</filter>
</defs>
</svg>
